<svg xmlns="http://www.w3.org/2000/svg" style="display: none;">
  <defs>
    <!-- Edit icon -->
    <symbol id="edit" viewBox="0 0 16 16">
      <path d="M1.6665 14.3334L5.36602 12.9105C5.60264 12.8195 5.72096 12.774 5.83165 12.7146C5.92997 12.6618 6.0237 12.6009 6.11186 12.5324C6.21112 12.4554 6.30075 12.3658 6.48002 12.1865L13.9999 4.66671C14.7362 3.93033 14.7362 2.73642 13.9999 2.00004C13.2635 1.26366 12.0696 1.26366 11.3332 2.00004L3.81336 9.51985C3.63409 9.69912 3.54445 9.78876 3.46743 9.88801C3.39902 9.97617 3.33811 10.0699 3.28533 10.1682C3.22591 10.2789 3.1804 10.3972 3.08939 10.6339L1.6665 14.3334ZM1.6665 14.3334L3.03858 10.766C3.13677 10.5107 3.18586 10.3831 3.27006 10.3246C3.34365 10.2735 3.43471 10.2542 3.5227 10.271C3.62339 10.2902 3.72009 10.3869 3.91349 10.5803L5.41955 12.0864C5.61295 12.2798 5.70965 12.3765 5.72888 12.4772C5.74568 12.5652 5.72636 12.6562 5.67527 12.7298C5.6168 12.814 5.48916 12.8631 5.23388 12.9613L1.6665 14.3334Z" stroke="currentColor" stroke-width="1.3" stroke-linecap="round" stroke-linejoin="round" fill="none"/>
    </symbol>

    <!-- Delete icon -->
    <symbol id="delete" viewBox="0 0 16 16">
      <path d="M6 2H10" stroke="currentColor" stroke-width="1.3" stroke-linecap="round" stroke-linejoin="round"/>
      <path d="M2 4H14" stroke="currentColor" stroke-width="1.3" stroke-linecap="round" stroke-linejoin="round"/>
      <path d="M3.3335 4L3.73409 10.0089C3.80846 11.1245 3.84565 11.6823 4.02795 12.1304C4.35894 12.9441 5.02988 13.5718 5.86373 13.8479C6.32301 14 6.88206 14 8.00016 14V14C9.11826 14 9.67731 14 10.1366 13.8479C10.9704 13.5718 11.6414 12.9441 11.9724 12.1304C12.1547 11.6823 12.1919 11.1245 12.2662 10.0089L12.6668 4" stroke="currentColor" stroke-width="1.3" stroke-linecap="round" stroke-linejoin="round" fill="none"/>
    </symbol>

    <!-- Logout icon -->
    <symbol id="logout" viewBox="0 0 18 18">
      <path d="M12 12.75L15.75 9M15.75 9L12 5.25M15.75 9H6.75M6.75 2.25H5.85C4.58988 2.25 3.95982 2.25 3.47852 2.49524C3.05516 2.71095 2.71095 3.05516 2.49524 3.47852C2.25 3.95982 2.25 4.58988 2.25 5.85V12.15C2.25 13.4101 2.25 14.0402 2.49524 14.5215C2.71095 14.9448 3.05516 15.289 3.47852 15.5048C3.95982 15.75 4.58988 15.75 5.85 15.75H6.75" stroke="currentColor" stroke-width="2" stroke-linecap="round" stroke-linejoin="round" fill="none"/>
    </symbol>

    <!-- Eye hidden icon -->
    <symbol id="eye-hidden" viewBox="0 0 24 24">
      <path d="M14.12 14.12C13.8454 14.4148 13.5141 14.6512 13.1462 14.8151C12.7782 14.9791 12.3809 15.0673 11.9781 15.0744C11.5753 15.0815 11.1752 15.0074 10.8016 14.8565C10.4281 14.7056 10.0887 14.4811 9.80385 14.1962C9.51897 13.9113 9.29439 13.572 9.14351 13.1984C8.99262 12.8249 8.91853 12.4247 8.92563 12.0219C8.93274 11.6191 9.02091 11.2219 9.18488 10.8539C9.34884 10.4859 9.58525 10.1547 9.88 9.88003M17.94 17.94C16.2306 19.243 14.1491 19.9649 12 20C5 20 1 12 1 12C2.24389 9.68192 3.96914 7.65663 6.06 6.06003L17.94 17.94ZM9.9 4.24002C10.5883 4.0789 11.2931 3.99836 12 4.00003C19 4.00003 23 12 23 12C22.393 13.1356 21.6691 14.2048 20.84 15.19L9.9 4.24002Z" stroke="currentColor" stroke-linecap="round" stroke-linejoin="round" fill="none"/>
      <path d="M1 1L23 23" stroke="currentColor" stroke-linecap="round" stroke-linejoin="round"/>
    </symbol>

    <!-- Close icon -->
    <symbol id="close" viewBox="0 0 28 28">
      <path d="M21 7L7 21" stroke="currentColor" stroke-width="2" stroke-linecap="round" stroke-linejoin="round"/>
      <path d="M7 7L21 21" stroke="currentColor" stroke-width="2" stroke-linecap="round" stroke-linejoin="round"/>
    </symbol>

    <!-- Attachment icon -->
    <symbol id="attachment" viewBox="0 0 18 18">
      <path d="M15.8061 10.6314L7.36856 2.19385C5.96231 0.731353 3.65605 0.731353 2.19355 2.1376C0.731055 3.54385 0.731055 5.90635 2.19355 7.3126L2.2498 7.36885L3.8248 9.0001L4.6123 8.2126L2.98105 6.58135C2.0248 5.6251 2.0248 3.99385 2.98105 3.0376C3.9373 2.08135 5.56855 2.0251 6.5248 2.98135L6.58105 3.0376L14.9623 11.4189C15.9748 12.3751 15.9748 14.0064 15.0186 14.9626C14.0623 15.9751 12.4311 15.9751 11.4748 15.0189L11.4186 14.9626L7.25605 10.8001C6.69355 10.2376 6.7498 9.3376 7.25605 8.83135C7.52572 8.58708 7.87658 8.45179 8.24043 8.45179C8.60428 8.45179 8.95514 8.58708 9.2248 8.83135L11.5311 11.1376L12.3186 10.3501L9.95605 7.9876C9.71659 7.76114 9.43467 7.58431 9.12654 7.46732C8.81841 7.35032 8.49018 7.29547 8.16075 7.30593C7.83133 7.31639 7.50723 7.39195 7.20715 7.52825C6.90706 7.66455 6.63692 7.85891 6.4123 8.1001C5.5123 9.05635 5.5123 10.5751 6.4123 11.5876L10.6311 15.8064C12.0373 17.2689 14.3436 17.2689 15.8061 15.8626C17.2686 14.4564 17.2686 12.0939 15.8061 10.6314C15.8061 10.6876 15.8061 10.6314 15.8061 10.6314Z" fill="currentColor"/>
    </symbol>
  </defs>
</svg>